<svg xmlns="http://www.w3.org/2000/svg" width="42.183" height="84.205" viewBox="0 0 42.183 84.205">
  <g id="scroll" transform="translate(-594.022 -124)">
    <ellipse id="Ellipse_3" data-name="Ellipse 3" cx="13" cy="13.5" rx="13" ry="13.5" transform="translate(602 136)" fill="#fff"/>
    <g id="Pfad_2" data-name="Pfad 2" transform="translate(594.022 124)" fill="none">
      <path d="M21.091,0C32.74,0,42.183,8.929,42.183,19.943V64.262c0,11.014-9.443,19.943-21.091,19.943S0,75.276,0,64.262V19.943C0,8.929,9.443,0,21.091,0Z" stroke="none"/>
      <path d="M 21.09136772155762 5 C 12.21855163574219 5 5 11.70356750488281 5 19.94336700439453 L 5 64.26195526123047 C 5 72.50175476074219 12.21855163574219 79.205322265625 21.09136772155762 79.205322265625 C 29.96418380737305 79.205322265625 37.18273544311523 72.50175476074219 37.18273544311523 64.26195526123047 L 37.18273544311523 19.94336700439453 C 37.18273544311523 11.70356750488281 29.96418380737305 5 21.09136772155762 5 M 21.09136772155762 0 C 32.73981475830078 0 42.18273544311523 8.928939819335938 42.18273544311523 19.94336700439453 L 42.18273544311523 64.26195526123047 C 42.18273544311523 75.2763671875 32.73981475830078 84.205322265625 21.09136772155762 84.205322265625 C 9.442920684814453 84.205322265625 0 75.2763671875 0 64.26195526123047 L 0 19.94336700439453 C 0 8.928939819335938 9.442920684814453 0 21.09136772155762 0 Z" stroke="none" fill="#fff"/>
    </g>
  </g>
</svg>
